REM DIRINDEX 1\2,1\3\7,1\3\8,1\4\9,1\4\10,1\4\11,1\5\12,1\5\13,1\5\14,1\6\15,1\6\16,1\6\17
REM DIRNAME "folder01","folder02","folder03","folder04","folder05","folder06","folder07","folder08","folder09","folder10","folder11","folder12","folder13","folder14","folder15","folder16","folder17"
TITLE ""
FILE "2Q_t_1287-1300.mp3" MP3
  TRACK 01 AUDIO
    TITLE "0:"
    INDEX 01 00:00:00
  TRACK 02 AUDIO
    TITLE "7:cjc174_4373"
    INDEX 01 00:00:08
  TRACK 03 AUDIO
    TITLE "0:"
    INDEX 01 00:01:18
  TRACK 04 AUDIO
    TITLE "8:cjc174_4374"
    INDEX 01 00:01:65
  TRACK 05 AUDIO
    TITLE "0:"
    INDEX 01 00:03:09
  TRACK 06 AUDIO
    TITLE "7:cjc174_4375"
    INDEX 01 00:03:54
  TRACK 07 AUDIO
    TITLE "0:"
    INDEX 01 00:04:63
  TRACK 08 AUDIO
    TITLE "8:cjc174_4376"
    INDEX 01 00:05:45
  TRACK 09 AUDIO
    TITLE "0:"
    INDEX 01 00:07:63
  TRACK 10 AUDIO
    TITLE "7:cjc174_4377"
    INDEX 01 00:08:33
  TRACK 11 AUDIO
    TITLE "0:"
    INDEX 01 00:09:54
  TRACK 12 AUDIO
    TITLE "8:cjc174_4378"
    INDEX 01 00:10:28
  TRACK 13 AUDIO
    TITLE "0:"
    INDEX 01 00:13:46
  TRACK 14 AUDIO
    TITLE "7:cjc174_4379"
    INDEX 01 00:14:18
  TRACK 15 AUDIO
    TITLE "0:"
    INDEX 01 00:15:45
  TRACK 16 AUDIO
    TITLE "8:cjc174_4380"
    INDEX 01 00:16:19
  TRACK 17 AUDIO
    TITLE "0:"
    INDEX 01 00:18:28
  TRACK 18 AUDIO
    TITLE "7:cjc174_4381"
    INDEX 01 00:18:73
  TRACK 19 AUDIO
    TITLE "0:"
    INDEX 01 00:20:21
  TRACK 20 AUDIO
    TITLE "8:cjc174_4382"
    INDEX 01 00:21:03
  TRACK 21 AUDIO
    TITLE "0:"
    INDEX 01 00:23:49
  TRACK 22 AUDIO
    TITLE "7:cjc174_4383"
    INDEX 01 00:24:19
  TRACK 23 AUDIO
    TITLE "0:"
    INDEX 01 00:25:26
  TRACK 24 AUDIO
    TITLE "8:cjc174_4384"
    INDEX 01 00:26:02
  TRACK 25 AUDIO
    TITLE "0:"
    INDEX 01 00:28:36
  TRACK 26 AUDIO
    TITLE "7:cjc174_4385"
    INDEX 01 00:29:06
  TRACK 27 AUDIO
    TITLE "0:"
    INDEX 01 00:30:04
  TRACK 28 AUDIO
    TITLE "8:cjc174_4386"
    INDEX 01 00:30:60
  TRACK 29 AUDIO
    TITLE "0:"
    INDEX 01 00:33:16
  TRACK 30 AUDIO
    TITLE "7:cjc174_4387"
    INDEX 01 00:33:61
  TRACK 31 AUDIO
    TITLE "0:"
    INDEX 01 00:34:66
  TRACK 32 AUDIO
    TITLE "8:cjc174_4388"
    INDEX 01 00:35:40
  TRACK 33 AUDIO
    TITLE "0:"
    INDEX 01 00:37:33
  TRACK 34 AUDIO
    TITLE "2:cjc174_4389"
    INDEX 01 00:38:05
  TRACK 35 AUDIO
    TITLE "0:"
    INDEX 01 00:39:08
  TRACK 36 AUDIO
    TITLE "7:cjc174_4390"
    INDEX 01 00:39:53
  TRACK 37 AUDIO
    TITLE "0:"
    INDEX 01 00:40:73
  TRACK 38 AUDIO
    TITLE "8:cjc174_4391"
    INDEX 01 00:41:41
  TRACK 39 AUDIO
    TITLE "0:"
    INDEX 01 00:43:59
  TRACK 40 AUDIO
    TITLE "7:cjc174_4392"
    INDEX 01 00:44:31
  TRACK 41 AUDIO
    TITLE "0:"
    INDEX 01 00:45:58
  TRACK 42 AUDIO
    TITLE "8:cjc174_4393"
    INDEX 01 00:46:32
  TRACK 43 AUDIO
    TITLE "0:"
    INDEX 01 00:50:34
  TRACK 44 AUDIO
    TITLE "7:cjc174_4394"
    INDEX 01 00:51:04
  TRACK 45 AUDIO
    TITLE "0:"
    INDEX 01 00:52:13
  TRACK 46 AUDIO
    TITLE "8:cjc174_4395"
    INDEX 01 00:52:66
  TRACK 47 AUDIO
    TITLE "0:"
    INDEX 01 00:56:42
  TRACK 48 AUDIO
    TITLE "7:cjc174_4396"
    INDEX 01 00:57:16
  TRACK 49 AUDIO
    TITLE "0:"
    INDEX 01 00:58:23
  TRACK 50 AUDIO
    TITLE "8:cjc174_4397"
    INDEX 01 00:58:72
  TRACK 51 AUDIO
    TITLE "0:"
    INDEX 01 01:01:53
  TRACK 52 AUDIO
    TITLE "2:cjc174_4398"
    INDEX 01 01:02:23
  TRACK 53 AUDIO
    TITLE "0:"
    INDEX 01 01:03:46
  TRACK 54 AUDIO
    TITLE "7:cjc174_4399"
    INDEX 01 01:04:16
  TRACK 55 AUDIO
    TITLE "0:"
    INDEX 01 01:05:29
  TRACK 56 AUDIO
    TITLE "8:cjc174_4400"
    INDEX 01 01:06:01
  TRACK 57 AUDIO
    TITLE "0:"
    INDEX 01 01:09:33
  TRACK 58 AUDIO
    TITLE "2:cjc174_4401"
    INDEX 01 01:10:03
  TRACK 59 AUDIO
    TITLE "0:"
    INDEX 01 01:11:18
  TRACK 60 AUDIO
    TITLE "7:cjc174_4402"
    INDEX 01 01:11:63
  TRACK 61 AUDIO
    TITLE "0:"
    INDEX 01 01:13:07
  TRACK 62 AUDIO
    TITLE "8:cjc174_4403"
    INDEX 01 01:13:54
  TRACK 63 AUDIO
    TITLE "0:"
    INDEX 01 01:15:26
